<svg width="225" height="63" viewBox="0 0 225 63" fill="none" xmlns="http://www.w3.org/2000/svg">
<path d="M25.193 39.315C24.249 41.4783 23.187 43.3663 22.007 44.979C20.8663 46.5523 19.647 47.8897 18.349 48.991C17.0903 50.053 15.812 50.8397 14.514 51.351C13.216 51.8623 11.9573 52.118 10.738 52.118C9.51867 52.118 8.39767 51.8427 7.375 51.292C6.39167 50.7413 5.52633 49.9153 4.779 48.814C4.03167 47.7127 3.422 46.3557 2.95 44.743C2.51733 43.1303 2.301 41.2423 2.301 39.079C2.301 35.3817 2.81233 31.7433 3.835 28.164C4.85767 24.5453 6.29333 21.3003 8.142 18.429C9.99067 15.5577 12.1737 13.2567 14.691 11.526C17.2477 9.756 20.06 8.871 23.128 8.871C24.072 8.871 24.9767 9.06767 25.842 9.461C26.7073 9.85433 27.4547 10.405 28.084 11.113C28.7133 11.821 29.205 12.6863 29.559 13.709C29.9523 14.7317 30.149 15.8723 30.149 17.131C30.149 17.367 30.149 17.6227 30.149 17.898C30.149 18.134 30.1293 18.3897 30.09 18.665L22.361 20.73C21.889 19.7467 21.3383 19.255 20.709 19.255C20.0797 19.255 19.411 19.6287 18.703 20.376C18.0343 21.084 17.3657 22.028 16.697 23.208C16.0283 24.3487 15.3793 25.6467 14.75 27.102C14.1207 28.518 13.57 29.9537 13.098 31.409C12.626 32.8643 12.2327 34.2607 11.918 35.598C11.6427 36.896 11.505 37.958 11.505 38.784C11.505 40.0427 11.6623 40.9277 11.977 41.439C12.331 41.9503 12.7833 42.206 13.334 42.206C13.7667 42.206 14.2583 42.0487 14.809 41.734C15.3597 41.38 15.871 40.9473 16.343 40.436C16.815 39.8853 17.2477 39.2757 17.641 38.607C18.0343 37.9383 18.3097 37.2697 18.467 36.601L25.193 39.315ZM51.0977 37.191C51.0977 38.8037 50.7634 40.2983 50.0947 41.675C49.426 43.0517 48.5214 44.3103 47.3807 45.451C46.24 46.5523 44.9027 47.5357 43.3687 48.401C41.874 49.227 40.281 49.935 38.5897 50.525C36.9377 51.0757 35.2267 51.5083 33.4567 51.823C31.726 52.0983 30.0544 52.236 28.4417 52.236C26.9864 52.236 25.6294 52.118 24.3707 51.882C26.2587 44.9987 27.7534 38.076 28.8547 31.114C29.9954 24.1127 31.077 17.072 32.0997 9.992C34.145 9.55933 36.269 9.18566 38.4717 8.871C40.6744 8.517 42.9557 8.34 45.3157 8.34C46.299 8.34 47.3414 8.458 48.4427 8.694C49.544 8.93 50.547 9.36266 51.4517 9.992C52.3564 10.6213 53.1037 11.4473 53.6937 12.47C54.323 13.4927 54.6377 14.7907 54.6377 16.364C54.6377 17.8587 54.382 19.255 53.8707 20.553C53.3987 21.851 52.7694 23.031 51.9827 24.093C51.2354 25.155 50.37 26.0793 49.3867 26.866C48.4034 27.6133 47.4004 28.1837 46.3777 28.577C46.889 28.8523 47.42 29.2457 47.9707 29.757C48.5214 30.2683 49.0327 30.878 49.5047 31.586C49.9767 32.2547 50.3504 33.061 50.6257 34.005C50.9404 34.949 51.0977 36.011 51.0977 37.191ZM37.5867 31.055C37.4294 31.999 37.272 32.8447 37.1147 33.592C36.9967 34.3 36.8787 34.9883 36.7607 35.657C36.6427 36.3257 36.505 37.0337 36.3477 37.781C36.2297 38.489 36.092 39.3347 35.9347 40.318C36.682 40.2393 37.5277 40.1017 38.4717 39.905C39.4157 39.7083 40.3204 39.4133 41.1857 39.02C42.051 38.5873 42.7787 38.0367 43.3687 37.368C43.9587 36.66 44.2537 35.8143 44.2537 34.831C44.2537 34.123 44.057 33.533 43.6637 33.061C43.3097 32.589 42.8377 32.1957 42.2477 31.881C41.697 31.5663 41.0874 31.35 40.4187 31.232C39.75 31.0747 39.1207 30.996 38.5307 30.996C38.334 30.996 38.157 30.996 37.9997 30.996C37.8817 30.996 37.744 31.0157 37.5867 31.055ZM40.2417 16.777C40.163 17.2097 40.0647 17.721 39.9467 18.311C39.868 18.901 39.7697 19.5303 39.6517 20.199C39.5337 20.8283 39.396 21.4577 39.2387 22.087C39.1207 22.7163 39.0224 23.267 38.9437 23.739C39.809 23.5817 40.6744 23.3653 41.5397 23.09C42.405 22.8147 43.172 22.5197 43.8407 22.205C44.5487 21.851 45.0994 21.4773 45.4927 21.084C45.9254 20.6907 46.1417 20.258 46.1417 19.786C46.1417 19.196 45.9647 18.724 45.6107 18.37C45.2567 17.9767 44.7847 17.662 44.1947 17.426C43.644 17.19 43.054 17.0327 42.4247 16.954C41.8347 16.836 41.3037 16.777 40.8317 16.777H40.2417ZM56.923 50.584C55.8217 50.7807 54.622 51.0167 53.324 51.292C52.026 51.5673 50.8853 51.823 49.902 52.059C50.374 50.3677 50.8263 48.4797 51.259 46.395C51.731 44.271 52.1833 42.0487 52.616 39.728C53.088 37.4073 53.5207 35.067 53.914 32.707C54.3467 30.3077 54.7597 28.0067 55.153 25.804C55.979 20.5727 56.805 15.1643 57.631 9.579L77.396 8.576L75.685 15.833H66.422L64.593 26.335C65.8123 26.2957 66.9727 26.276 68.074 26.276C68.9787 26.276 69.903 26.276 70.847 26.276C71.791 26.276 72.5187 26.2563 73.03 26.217C72.912 27.3183 72.7547 28.4 72.558 29.462C72.4007 30.524 72.2433 31.586 72.086 32.648C71.5747 32.648 70.847 32.648 69.903 32.648C68.959 32.6087 67.9757 32.5693 66.953 32.53C65.9697 32.4907 64.8487 32.4513 63.59 32.412L60.876 49.817C59.5387 50.053 58.221 50.3087 56.923 50.584ZM200.223 29.521C199.948 33.533 199.161 37.0337 197.863 40.023C196.565 42.973 194.992 45.451 193.143 47.457C191.334 49.463 189.367 50.9577 187.243 51.941C185.158 52.9243 183.172 53.416 181.284 53.416C179.829 53.416 178.432 53.1013 177.095 52.472C175.797 51.8427 174.656 50.8987 173.673 49.64C172.729 48.342 171.982 46.7293 171.431 44.802C170.88 42.8747 170.605 40.613 170.605 38.017C170.605 32.943 171.333 28.518 172.788 24.742C174.243 20.966 176.072 17.8193 178.275 15.302C180.517 12.7847 182.897 10.9163 185.414 9.697C187.971 8.47767 190.35 7.868 192.553 7.868C194.126 7.868 195.483 8.14333 196.624 8.694C197.804 9.24467 198.768 9.992 199.515 10.936C200.262 11.8407 200.793 12.9223 201.108 14.181C201.462 15.4003 201.639 16.6983 201.639 18.075L193.556 19.609C193.202 18.0357 192.73 16.9147 192.14 16.246C191.55 15.5773 190.881 15.243 190.134 15.243C189.151 15.243 188.069 15.951 186.889 17.367C185.709 18.7437 184.608 20.5333 183.585 22.736C182.562 24.9387 181.697 27.3577 180.989 29.993C180.281 32.6283 179.888 35.2243 179.809 37.781C179.809 40.2197 180.163 41.97 180.871 43.032C181.618 44.0547 182.562 44.566 183.703 44.566C184.49 44.566 185.296 44.3693 186.122 43.976C186.987 43.5827 187.754 43.032 188.423 42.324C189.092 41.5767 189.642 40.731 190.075 39.787C190.547 38.8037 190.803 37.7417 190.842 36.601L184.529 37.545L185.65 31.704C187.499 31.468 189.308 31.232 191.078 30.996C192.573 30.7993 194.146 30.5633 195.798 30.288C197.489 30.0127 198.964 29.757 200.223 29.521ZM219.281 50.82C218.298 50.9773 217.216 51.1543 216.036 51.351C214.856 51.5477 213.794 51.7247 212.85 51.882C213.008 50.584 213.165 49.3057 213.322 48.047C213.44 46.9457 213.539 45.8443 213.617 44.743C213.735 43.6417 213.834 42.6977 213.912 41.911H208.779L206.419 50.407C205.554 50.525 204.531 50.6627 203.351 50.82C202.171 50.938 201.07 51.056 200.047 51.174C198.789 51.3313 197.55 51.4887 196.33 51.646C197.904 46.4147 199.457 41.262 200.991 36.188C201.621 34.064 202.27 31.8417 202.938 29.521C203.646 27.2003 204.335 24.8993 205.003 22.618C205.711 20.2973 206.38 18.075 207.009 15.951C207.639 13.827 208.189 11.88 208.661 10.11C211.336 9.91333 214.05 9.67733 216.803 9.402C219.596 9.12666 222.31 8.753 224.945 8.281C224.827 9.53966 224.69 11.113 224.532 13.001C224.414 14.8497 224.296 16.8753 224.178 19.078C224.06 21.2807 223.942 23.5817 223.824 25.981C223.706 28.3803 223.588 30.7403 223.47 33.061C223.274 38.489 223.057 44.2513 222.821 50.348C221.641 50.5447 220.461 50.702 219.281 50.82ZM210.195 36.011C210.353 36.011 210.628 36.011 211.021 36.011C211.454 35.9717 211.887 35.952 212.319 35.952C212.791 35.9127 213.224 35.893 213.617 35.893C214.011 35.8537 214.286 35.8143 214.443 35.775C214.443 35.539 214.463 35.1457 214.502 34.595C214.581 34.005 214.64 33.356 214.679 32.648C214.758 31.9007 214.837 31.0943 214.915 30.229C214.994 29.3637 215.073 28.518 215.151 27.692C215.309 25.686 215.505 23.5227 215.741 21.202L216.095 16.069L215.21 16.128L213.853 21.202L210.195 36.011Z" fill="white"/>
<path d="M69.5974 52.059C70.7774 46.749 71.8984 41.557 72.9604 36.483C73.3931 34.359 73.8454 32.117 74.3174 29.757C74.7894 27.397 75.2417 25.0763 75.6744 22.795C76.1071 20.5137 76.5201 18.311 76.9134 16.187C77.3067 14.063 77.6411 12.116 77.9164 10.346C79.0571 9.992 80.1781 9.697 81.2794 9.461C82.3807 9.18566 83.5017 8.94966 84.6424 8.753C85.8224 8.55633 86.9237 8.458 87.9464 8.458C89.7164 8.458 91.1914 8.753 92.3714 9.343C93.5907 9.933 94.5741 10.7393 95.3214 11.762C96.0687 12.7453 96.5997 13.9057 96.9144 15.243C97.2291 16.5803 97.3864 18.016 97.3864 19.55C97.3864 21.7527 96.9734 23.8767 96.1474 25.922C95.3607 27.9673 94.2791 29.7963 92.9024 31.409C91.5651 32.9823 90.0114 34.241 88.2414 35.185C86.5107 36.129 84.7014 36.601 82.8134 36.601H82.1644C81.8497 37.9383 81.5547 39.3937 81.2794 40.967C81.0041 42.5403 80.7681 43.9957 80.5714 45.333C80.2961 46.9063 80.0404 48.4797 79.8044 50.053L69.5974 52.059ZM86.0584 15.597C85.6257 18.193 85.1931 20.6513 84.7604 22.972C84.3277 25.2927 83.8557 27.7707 83.3444 30.406C83.9737 30.2487 84.6227 29.8947 85.2914 29.344C85.9994 28.754 86.6484 28.0067 87.2384 27.102C87.8284 26.158 88.3004 25.0763 88.6544 23.857C89.0084 22.6377 89.1854 21.3593 89.1854 20.022C89.1854 18.5667 88.8511 17.4653 88.1824 16.718C87.5531 15.9707 86.8451 15.597 86.0584 15.597ZM125.17 20.081C125.17 23.3063 124.816 26.3547 124.108 29.226C123.439 32.058 122.535 34.6737 121.394 37.073C120.253 39.433 118.916 41.557 117.382 43.445C115.887 45.2937 114.314 46.8867 112.662 48.224C111.01 49.522 109.338 50.525 107.647 51.233C105.956 51.9017 104.343 52.236 102.809 52.236C101.511 52.236 100.331 52 99.2689 51.528C98.2069 51.0167 97.2825 50.289 96.4959 49.345C95.7092 48.3617 95.0799 47.1227 94.6079 45.628C94.1752 44.094 93.9589 42.265 93.9589 40.141C93.9589 37.9383 94.2342 35.6177 94.7849 33.179C95.3355 30.7403 96.0829 28.3213 97.0269 25.922C97.9709 23.5227 99.1312 21.2413 100.508 19.078C101.885 16.9147 103.399 15.007 105.051 13.355C106.703 11.6637 108.473 10.3263 110.361 9.343C112.249 8.35966 114.216 7.868 116.261 7.868C118.031 7.868 119.486 8.24167 120.627 8.989C121.807 9.697 122.712 10.641 123.341 11.821C124.01 12.9617 124.482 14.2597 124.757 15.715C125.032 17.1703 125.17 18.6257 125.17 20.081ZM102.75 38.607C102.75 39.0397 102.829 39.492 102.986 39.964C103.143 40.436 103.36 40.849 103.635 41.203C103.91 41.557 104.245 41.8717 104.638 42.147C105.071 42.383 105.523 42.501 105.995 42.501C107.765 42.501 109.338 41.8913 110.715 40.672C112.092 39.4527 113.232 37.958 114.137 36.188C115.042 34.418 115.73 32.53 116.202 30.524C116.713 28.518 116.969 26.689 116.969 25.037C116.969 24.565 116.93 24.0537 116.851 23.503C116.812 22.9523 116.694 22.441 116.497 21.969C116.34 21.497 116.064 21.1037 115.671 20.789C115.317 20.435 114.825 20.258 114.196 20.258C112.937 20.258 111.777 20.5727 110.715 21.202C109.653 21.8313 108.689 22.677 107.824 23.739C106.998 24.7617 106.27 25.9417 105.641 27.279C105.012 28.577 104.461 29.9143 103.989 31.291C103.556 32.6283 103.242 33.946 103.045 35.244C102.848 36.542 102.75 37.663 102.75 38.607ZM154.267 20.081C154.267 23.3063 153.913 26.3547 153.205 29.226C152.536 32.058 151.631 34.6737 150.491 37.073C149.35 39.433 148.013 41.557 146.479 43.445C144.984 45.2937 143.411 46.8867 141.759 48.224C140.107 49.522 138.435 50.525 136.744 51.233C135.052 51.9017 133.44 52.236 131.906 52.236C130.608 52.236 129.428 52 128.366 51.528C127.304 51.0167 126.379 50.289 125.593 49.345C124.806 48.3617 124.177 47.1227 123.705 45.628C123.272 44.094 123.056 42.265 123.056 40.141C123.056 37.9383 123.331 35.6177 123.882 33.179C124.432 30.7403 125.18 28.3213 126.124 25.922C127.068 23.5227 128.228 21.2413 129.605 19.078C130.981 16.9147 132.496 15.007 134.148 13.355C135.8 11.6637 137.57 10.3263 139.458 9.343C141.346 8.35966 143.312 7.868 145.358 7.868C147.128 7.868 148.583 8.24167 149.724 8.989C150.904 9.697 151.808 10.641 152.438 11.821C153.106 12.9617 153.578 14.2597 153.854 15.715C154.129 17.1703 154.267 18.6257 154.267 20.081ZM131.847 38.607C131.847 39.0397 131.925 39.492 132.083 39.964C132.24 40.436 132.456 40.849 132.732 41.203C133.007 41.557 133.341 41.8717 133.735 42.147C134.167 42.383 134.62 42.501 135.092 42.501C136.862 42.501 138.435 41.8913 139.812 40.672C141.188 39.4527 142.329 37.958 143.234 36.188C144.138 34.418 144.827 32.53 145.299 30.524C145.81 28.518 146.066 26.689 146.066 25.037C146.066 24.565 146.026 24.0537 145.948 23.503C145.908 22.9523 145.79 22.441 145.594 21.969C145.436 21.497 145.161 21.1037 144.768 20.789C144.414 20.435 143.922 20.258 143.293 20.258C142.034 20.258 140.874 20.5727 139.812 21.202C138.75 21.8313 137.786 22.677 136.921 23.739C136.095 24.7617 135.367 25.9417 134.738 27.279C134.108 28.577 133.558 29.9143 133.086 31.291C132.653 32.6283 132.338 33.946 132.142 35.244C131.945 36.542 131.847 37.663 131.847 38.607ZM166.607 50.112C165.388 50.112 164.09 50.1513 162.713 50.23C161.376 50.3087 160.019 50.4267 158.642 50.584C157.266 50.7413 155.909 50.9577 154.571 51.233C153.273 51.469 152.093 51.764 151.031 52.118C151.267 50.348 151.543 48.3813 151.857 46.218C152.172 44.0547 152.526 41.8127 152.919 39.492C153.352 37.1713 153.765 34.831 154.158 32.471C154.591 30.111 155.024 27.8493 155.456 25.686C156.44 20.5333 157.482 15.2823 158.583 9.933L168.908 8.576C167.846 13.1387 166.824 17.5833 165.84 21.91C165.408 23.7587 164.975 25.686 164.542 27.692C164.11 29.6587 163.697 31.586 163.303 33.474C162.91 35.362 162.556 37.191 162.241 38.961C161.927 40.731 161.671 42.3043 161.474 43.681C162.458 43.6023 163.5 43.563 164.601 43.563C165.742 43.5237 166.745 43.504 167.61 43.504C167.65 44.2513 167.709 44.9987 167.787 45.746C167.866 46.454 167.945 47.103 168.023 47.693C168.141 48.283 168.22 48.814 168.259 49.286C168.338 49.7187 168.397 50.0137 168.436 50.171C168.122 50.171 167.807 50.171 167.492 50.171C167.217 50.1317 166.922 50.112 166.607 50.112Z" fill="#2F0268"/>
</svg>
