<svg width="229" height="44" viewBox="0 0 229 44" fill="none" xmlns="http://www.w3.org/2000/svg">
<path d="M143.64 9.04C147.107 9.04 149.973 10.1867 152.24 12.48C154.507 14.7467 155.64 17.9067 155.64 21.96C155.64 24.5733 155.187 26.8667 154.28 28.84C153.373 30.7867 152.187 32.2933 150.72 33.36C147.867 35.44 144.72 36.48 141.28 36.48C137.84 36.48 134.987 35.3333 132.72 33.04C130.48 30.72 129.36 27.5333 129.36 23.48C129.36 21.3733 129.653 19.48 130.24 17.8C130.853 16.0933 131.64 14.7067 132.6 13.64C133.587 12.5733 134.72 11.68 136 10.96C138.347 9.68 140.893 9.04 143.64 9.04ZM135.6 31.44C136.293 32.6133 137.227 33.5333 138.4 34.2C139.573 34.84 140.92 35.16 142.44 35.16C143.987 35.16 145.36 34.7733 146.56 34C147.76 33.2267 148.693 32.2133 149.36 30.96C150.72 28.4533 151.4 25.76 151.4 22.88C151.4 19.3333 150.693 16.48 149.28 14.32C147.707 11.8933 145.107 10.68 141.48 10.68C138.893 11.5867 136.933 13.1467 135.6 15.36C134.267 17.5733 133.6 20.08 133.6 22.88C133.6 26.2933 134.267 29.1467 135.6 31.44ZM160.584 36V9.52H164.504V33.84C166.131 34.32 167.438 34.56 168.424 34.56L175.664 33.32L175.184 36H160.584Z" fill="#2F0268"/>
<path d="M196.837 24.6H200.717V35.12C198.423 36.0267 195.663 36.48 192.437 36.48C188.517 36.48 185.143 35.44 182.317 33.36C180.93 32.32 179.823 30.96 178.997 29.28C178.17 27.5733 177.757 25.6933 177.757 23.64C177.757 21.5867 178.077 19.7467 178.717 18.12C179.357 16.4667 180.183 15.0933 181.197 14C182.237 12.9067 183.437 11.9733 184.797 11.2C187.33 9.76 190.117 9.04 193.157 9.04C194.33 9.04 195.597 9.17333 196.957 9.44C198.317 9.70667 199.357 9.98667 200.077 10.28L199.677 12.96C196.077 11.44 193.09 10.68 190.717 10.68C188.023 11.3733 185.89 12.8 184.317 14.96C182.77 17.12 181.997 19.76 181.997 22.88C181.997 26.7733 183.023 29.7867 185.077 31.92C187.13 34.0267 189.837 35.08 193.197 35.08C194.53 35.08 195.743 34.9467 196.837 34.68V24.6ZM204.064 36L215.944 8.88H216.544L228.424 36H224.064L221.064 28.8H209.184L206.224 36H204.064ZM209.784 27.28H220.424L215.144 14.32L209.784 27.28Z" fill="white"/>
<path d="M15.8 36.48C11.6667 36.48 8.18667 35.36 5.36 33.12C2.53333 30.88 1.12 27.6667 1.12 23.48C1.12 21.0267 1.58667 18.84 2.52 16.92C3.45333 15 4.68 13.4933 6.2 12.4C9.26667 10.16 12.7067 9.04 16.52 9.04C18.7333 9.04 21.04 9.44 23.44 10.24L23.04 12.96C21.7867 12.4267 20.8133 12.0267 20.12 11.76C18.12 11.04 16.1067 10.68 14.08 10.68C11.28 11.32 9.12 12.7067 7.6 14.84C6.10667 16.9733 5.36 19.64 5.36 22.84C5.36 26.76 6.38667 29.7867 8.44 31.92C10.4933 34.0267 13.2 35.08 16.56 35.08C19.92 35.08 22.4267 34.36 24.08 32.92V35.12C21.7867 36.0267 19.0267 36.48 15.8 36.48ZM28.8734 36V9.52H36.4334C39.5001 9.52 41.9401 10.04 43.7534 11.08C45.5668 12.12 46.4734 13.68 46.4734 15.76C46.4734 17.2267 45.9534 18.5067 44.9134 19.6C43.9001 20.6667 42.4734 21.48 40.6334 22.04C43.0601 22.4933 44.8868 23.32 46.1134 24.52C47.3668 25.6933 47.9934 26.9867 47.9934 28.4C47.9934 29.8133 47.6334 31.0267 46.9134 32.04C46.1934 33.0267 45.2734 33.7867 44.1534 34.32C41.8868 35.44 39.5668 36 37.1934 36H28.8734ZM32.7534 21.64H35.6334C38.0601 21.64 39.7934 21.1067 40.8334 20.04C41.9001 18.9467 42.4334 17.5867 42.4334 15.96C42.4334 14.8667 42.0601 13.88 41.3134 13C40.5934 12.0933 39.4734 11.4133 37.9534 10.96C36.1401 10.96 34.4068 11.2267 32.7534 11.76V21.64ZM32.7534 22.8V34.2C33.6068 34.4667 34.9268 34.6 36.7134 34.6C38.5001 34.6 40.0868 34.1067 41.4734 33.12C42.8601 32.1333 43.5534 30.76 43.5534 29C43.5534 27.24 42.7934 25.7733 41.2734 24.6C39.7534 23.4 37.9268 22.8 35.7934 22.8H32.7534ZM58.4956 21.36H66.9756V22.88H58.4956V36H54.6156V9.52H70.2556V12.2L62.8556 10.96C61.5223 10.96 60.069 11.1867 58.4956 11.64V21.36Z" fill="white"/>
<path d="M91.6734 16.4C91.6734 18.96 90.7268 20.9067 88.8334 22.24C86.9668 23.5467 84.4201 24.2 81.1934 24.2H77.7534V36H73.8734V9.52H82.4734C85.1668 9.52 87.3668 10.1333 89.0734 11.36C90.8068 12.5867 91.6734 14.2667 91.6734 16.4ZM77.7534 23.04H81.3134C82.5668 23.04 83.6334 22.8 84.5134 22.32C85.4201 21.84 86.0734 21.2267 86.4734 20.48C87.1934 19.1467 87.5534 17.8533 87.5534 16.6C87.5534 15.9867 87.3934 15.2533 87.0734 14.4C86.4334 12.64 85.1134 11.4933 83.1134 10.96C81.1934 10.96 79.4068 11.1867 77.7534 11.64V23.04Z" fill="#2F0268"/>
<path d="M124.995 9.27928C124.256 8.6424 122.008 7.99982 118.651 7.99982C118.131 7.99982 117.587 8.01724 117.026 8.05135L126.422 16.1509C126.699 12.7138 125.955 10.1075 124.995 9.27928Z" fill="#2F0268"/>
<path d="M101.83 35.9965H101.831C102.351 35.9965 102.894 35.9792 103.454 35.945L94.0584 27.8455C93.7819 31.2825 94.525 33.889 95.4856 34.7171C96.2243 35.3538 98.4725 35.9964 101.83 35.9965Z" fill="#2F0268"/>
<path d="M119.449 29.9364C123.191 26.7109 124.928 22.8497 125.736 19.9583L112.616 8.64874C108.644 9.47807 104.39 11.1644 101.032 14.0596C97.2897 17.2853 95.5522 21.1467 94.7448 24.038L107.864 35.3477C111.836 34.5184 116.09 32.8319 119.449 29.9364ZM106.413 29.6968L101.309 25.2975C100.605 24.69 100.605 23.7053 101.309 23.0978C102.014 22.4904 103.156 22.4904 103.861 23.0978L105.131 24.1922L107.682 21.9926L106.413 20.8983C105.708 20.291 105.708 19.3061 106.413 18.6987C107.117 18.0914 108.259 18.0913 108.964 18.6987L110.234 19.793L112.786 17.5933L111.516 16.4989C110.812 15.8914 110.812 14.9067 111.516 14.2992C112.221 13.6918 113.363 13.6918 114.068 14.2993L116.612 16.4926C116.612 16.4929 116.612 16.4931 116.613 16.4934C116.613 16.4937 116.613 16.4939 116.614 16.4942L119.171 18.6988C119.875 19.3062 119.875 20.291 119.171 20.8984C118.818 21.2021 118.357 21.3539 117.895 21.3539C117.433 21.3539 116.971 21.2021 116.619 20.8983L115.337 19.793L112.786 21.9924L114.068 23.0977C114.772 23.7051 114.772 24.6899 114.068 25.2974C113.715 25.6011 113.254 25.753 112.792 25.753C112.33 25.753 111.869 25.6012 111.516 25.2975L110.234 24.1921L107.682 26.3918L108.964 27.4972C109.669 28.1046 109.669 29.0894 108.964 29.6968C108.612 30.0005 108.15 30.1524 107.689 30.1524C107.227 30.1524 106.765 30.0005 106.413 29.6968Z" fill="#2F0268"/>
</svg>
