<svg width="160" height="44" viewBox="0 0 160 44" fill="none" xmlns="http://www.w3.org/2000/svg">
<g clip-path="url(#clip0_30_70)">
<path d="M93.9946 7.28111C93.2557 6.64423 91.0077 6.00165 87.6506 6.00165C87.1307 6.00165 86.5873 6.01907 86.0265 6.05318L95.4221 14.1527C95.6986 10.7156 94.9554 8.1093 93.9946 7.28111Z" fill="#2F0268"/>
<path d="M70.8301 33.9983H70.8312C71.3507 33.9983 71.8939 33.981 72.4541 33.9468L63.0585 25.8473C62.782 29.2844 63.5251 31.8908 64.4857 32.719C65.2243 33.3556 67.4726 33.9982 70.8301 33.9983Z" fill="#2F0268"/>
<path d="M88.449 27.9383C92.1908 24.7127 93.9282 20.8515 94.7357 17.9602L81.6164 6.65057C77.6444 7.4799 73.3902 9.16625 70.0316 12.0614C66.2898 15.2871 64.5523 19.1485 63.7448 22.0398L76.8643 33.3496C80.8362 32.5202 85.0903 30.8338 88.449 27.9383ZM75.4128 27.6986L70.3094 23.2993C69.6048 22.6919 69.6048 21.7071 70.3094 21.0997C71.014 20.4922 72.1564 20.4922 72.861 21.0997L74.1306 22.194L76.6822 19.9944L75.4128 18.9001C74.7083 18.2928 74.7081 17.308 75.4127 16.7005C76.1173 16.0932 77.2595 16.0931 77.9644 16.7005L79.2339 17.7948L81.7856 15.5952L80.516 14.5007C79.8116 13.8933 79.8116 12.9085 80.5161 12.3011C81.2206 11.6936 82.3631 11.6936 83.0677 12.3012L85.6119 14.4945C85.6122 14.4947 85.6125 14.4949 85.6127 14.4952C85.6132 14.4955 85.6134 14.4957 85.6137 14.496L88.1709 16.7006C88.8754 17.3081 88.8752 18.2928 88.1707 18.9003C87.8185 19.204 87.3567 19.3558 86.8951 19.3558C86.4333 19.3558 85.9715 19.204 85.6192 18.9001L84.3371 17.7948L81.7856 19.9942L83.0678 21.0996C83.7724 21.7069 83.7724 22.6918 83.0678 23.2992C82.7155 23.6029 82.2538 23.7548 81.7921 23.7548C81.3303 23.7548 80.8687 23.603 80.5164 23.2993L79.2341 22.1939L76.6823 24.3937L77.9645 25.499C78.6693 26.1064 78.6693 27.0912 77.9645 27.6986C77.6122 28.0024 77.1504 28.1543 76.6887 28.1543C76.2268 28.1543 75.765 28.0024 75.4128 27.6986Z" fill="#2F0268"/>
</g>
<path d="M106 34.4C103.84 34.4 102.187 33.7867 101.04 32.56C99.8933 31.3333 99.32 29.6 99.32 27.36V12.64C99.32 10.4 99.8933 8.66667 101.04 7.44C102.187 6.21333 103.84 5.6 106 5.6C108.16 5.6 109.813 6.21333 110.96 7.44C112.107 8.66667 112.68 10.4 112.68 12.64V27.36C112.68 29.6 112.107 31.3333 110.96 32.56C109.813 33.7867 108.16 34.4 106 34.4ZM106 30.4C107.52 30.4 108.28 29.48 108.28 27.64V12.36C108.28 10.52 107.52 9.6 106 9.6C104.48 9.6 103.72 10.52 103.72 12.36V27.64C103.72 29.48 104.48 30.4 106 30.4ZM115.656 6H120.056V30H127.296V34H115.656V6Z" fill="#2F0268"/>
<path d="M135.646 34.4C133.512 34.4 131.886 33.8 130.766 32.6C129.646 31.3733 129.086 29.6267 129.086 27.36V12.64C129.086 10.3733 129.646 8.64 130.766 7.44C131.886 6.21333 133.512 5.6 135.646 5.6C137.779 5.6 139.406 6.21333 140.526 7.44C141.646 8.64 142.206 10.3733 142.206 12.64V15.04H138.046V12.36C138.046 10.52 137.286 9.6 135.766 9.6C134.246 9.6 133.486 10.52 133.486 12.36V27.68C133.486 29.4933 134.246 30.4 135.766 30.4C137.286 30.4 138.046 29.4933 138.046 27.68V22.2H135.846V18.2H142.206V27.36C142.206 29.6267 141.646 31.3733 140.526 32.6C139.406 33.8 137.779 34.4 135.646 34.4ZM148.431 6H154.391L158.951 34H154.551L153.751 28.44V28.52H148.751L147.951 34H143.871L148.431 6ZM153.231 24.72L151.271 10.88H151.191L149.271 24.72H153.231Z" fill="white"/>
<path d="M7.84 34.4C5.73333 34.4 4.12 33.8 3 32.6C1.90667 31.4 1.36 29.7067 1.36 27.52V12.48C1.36 10.2933 1.90667 8.6 3 7.4C4.12 6.2 5.73333 5.6 7.84 5.6C9.94667 5.6 11.5467 6.2 12.64 7.4C13.76 8.6 14.32 10.2933 14.32 12.48V15.44H10.16V12.2C10.16 10.4667 9.42667 9.6 7.96 9.6C6.49333 9.6 5.76 10.4667 5.76 12.2V27.84C5.76 29.5467 6.49333 30.4 7.96 30.4C9.42667 30.4 10.16 29.5467 10.16 27.84V23.56H14.32V27.52C14.32 29.7067 13.76 31.4 12.64 32.6C11.5467 33.8 9.94667 34.4 7.84 34.4ZM16.9525 6H23.5925C25.8592 6 27.5125 6.53333 28.5525 7.6C29.5925 8.64 30.1125 10.2533 30.1125 12.44V13.56C30.1125 15 29.8725 16.1733 29.3925 17.08C28.9392 17.9867 28.2325 18.64 27.2725 19.04V19.12C29.4592 19.8667 30.5525 21.8133 30.5525 24.96V27.36C30.5525 29.52 29.9792 31.1733 28.8325 32.32C27.7125 33.44 26.0592 34 23.8725 34H16.9525V6ZM23.0725 17.4C23.9525 17.4 24.6058 17.1733 25.0325 16.72C25.4858 16.2667 25.7125 15.5067 25.7125 14.44V12.88C25.7125 11.8667 25.5258 11.1333 25.1525 10.68C24.8058 10.2267 24.2458 10 23.4725 10H21.3525V17.4H23.0725ZM23.8725 30C24.6458 30 25.2192 29.8 25.5925 29.4C25.9658 28.9733 26.1525 28.2533 26.1525 27.24V24.8C26.1525 23.52 25.9258 22.64 25.4725 22.16C25.0458 21.6533 24.3258 21.4 23.3125 21.4H21.3525V30H23.8725ZM33.1244 6H44.7644V10H37.5244V17.8H43.2044V21.8H37.5244V34H33.1244V6Z" fill="white"/>
<path d="M46.8744 6H53.3544C55.541 6 57.181 6.58667 58.2744 7.76C59.3677 8.93333 59.9144 10.6533 59.9144 12.92V15.68C59.9144 17.9467 59.3677 19.6667 58.2744 20.84C57.181 22.0133 55.541 22.6 53.3544 22.6H51.2744V34H46.8744V6ZM53.3544 18.6C54.0744 18.6 54.6077 18.4 54.9544 18C55.3277 17.6 55.5144 16.92 55.5144 15.96V12.64C55.5144 11.68 55.3277 11 54.9544 10.6C54.6077 10.2 54.0744 10 53.3544 10H51.2744V18.6H53.3544Z" fill="#2F0268"/>
<defs>
<clipPath id="clip0_30_70">
<rect width="32.4805" height="28" fill="white" transform="translate(63 6)"/>
</clipPath>
</defs>
</svg>
