<svg width="223" height="47" viewBox="0 0 223 47" fill="none" xmlns="http://www.w3.org/2000/svg">
<path d="M23.193 32.315C22.249 34.4784 21.187 36.3664 20.007 37.979C18.8664 39.5524 17.647 40.8897 16.349 41.991C15.0904 43.053 13.812 43.8397 12.514 44.351C11.216 44.8624 9.95736 45.118 8.73803 45.118C7.51869 45.118 6.39769 44.8427 5.37503 44.292C4.39169 43.7414 3.52636 42.9154 2.77903 41.814C2.03169 40.7127 1.42203 39.3557 0.950025 37.743C0.517359 36.1304 0.301025 34.2424 0.301025 32.079C0.301025 28.3817 0.812359 24.7434 1.83503 21.164C2.85769 17.5454 4.29336 14.3004 6.14203 11.429C7.99069 8.55771 10.1737 6.25671 12.691 4.52604C15.2477 2.75604 18.06 1.87104 21.128 1.87104C22.072 1.87104 22.9767 2.06771 23.842 2.46104C24.7074 2.85438 25.4547 3.40504 26.084 4.11304C26.7134 4.82104 27.205 5.68637 27.559 6.70904C27.9524 7.73171 28.149 8.87238 28.149 10.131C28.149 10.367 28.149 10.6227 28.149 10.898C28.149 11.134 28.1294 11.3897 28.09 11.665L20.361 13.73C19.889 12.7467 19.3384 12.255 18.709 12.255C18.0797 12.255 17.411 12.6287 16.703 13.376C16.0344 14.084 15.3657 15.028 14.697 16.208C14.0284 17.3487 13.3794 18.6467 12.75 20.102C12.1207 21.518 11.57 22.9537 11.098 24.409C10.626 25.8644 10.2327 27.2607 9.91803 28.598C9.64269 29.896 9.50503 30.958 9.50503 31.784C9.50503 33.0427 9.66236 33.9277 9.97703 34.439C10.331 34.9504 10.7834 35.206 11.334 35.206C11.7667 35.206 12.2584 35.0487 12.809 34.734C13.3597 34.38 13.871 33.9474 14.343 33.436C14.815 32.8854 15.2477 32.2757 15.641 31.607C16.0344 30.9384 16.3097 30.2697 16.467 29.601L23.193 32.315Z" fill="white"/>
<path d="M49.0977 30.191C49.0977 31.8037 48.7634 33.2984 48.0947 34.675C47.426 36.0517 46.5214 37.3104 45.3807 38.451C44.24 39.5524 42.9027 40.5357 41.3687 41.401C39.874 42.227 38.281 42.935 36.5897 43.525C34.9377 44.0757 33.2267 44.5084 31.4567 44.823C29.726 45.0984 28.0544 45.236 26.4417 45.236C24.9864 45.236 23.6294 45.118 22.3707 44.882C24.2587 37.9987 25.7534 31.076 26.8547 24.114C27.9954 17.1127 29.077 10.072 30.0997 2.99204C32.145 2.55937 34.269 2.18571 36.4717 1.87104C38.6744 1.51704 40.9557 1.34004 43.3157 1.34004C44.299 1.34004 45.3414 1.45804 46.4427 1.69404C47.544 1.93004 48.5471 2.36271 49.4517 2.99204C50.3564 3.62138 51.1037 4.44738 51.6937 5.47004C52.323 6.49271 52.6377 7.79071 52.6377 9.36404C52.6377 10.8587 52.382 12.255 51.8707 13.553C51.3987 14.851 50.7694 16.031 49.9827 17.093C49.2354 18.155 48.37 19.0794 47.3867 19.866C46.4034 20.6134 45.4004 21.1837 44.3777 21.577C44.889 21.8524 45.42 22.2457 45.9707 22.757C46.5214 23.2684 47.0327 23.878 47.5047 24.586C47.9767 25.2547 48.3504 26.061 48.6257 27.005C48.9404 27.949 49.0977 29.011 49.0977 30.191ZM35.5867 24.055C35.4294 24.999 35.272 25.8447 35.1147 26.592C34.9967 27.3 34.8787 27.9884 34.7607 28.657C34.6427 29.3257 34.505 30.0337 34.3477 30.781C34.2297 31.489 34.092 32.3347 33.9347 33.318C34.682 33.2394 35.5277 33.1017 36.4717 32.905C37.4157 32.7084 38.3204 32.4134 39.1857 32.02C40.051 31.5874 40.7787 31.0367 41.3687 30.368C41.9587 29.66 42.2537 28.8144 42.2537 27.831C42.2537 27.123 42.057 26.533 41.6637 26.061C41.3097 25.589 40.8377 25.1957 40.2477 24.881C39.697 24.5664 39.0874 24.35 38.4187 24.232C37.75 24.0747 37.1207 23.996 36.5307 23.996C36.334 23.996 36.157 23.996 35.9997 23.996C35.8817 23.996 35.744 24.0157 35.5867 24.055ZM38.2417 9.77704C38.163 10.2097 38.0647 10.721 37.9467 11.311C37.868 11.901 37.7697 12.5304 37.6517 13.199C37.5337 13.8284 37.396 14.4577 37.2387 15.087C37.1207 15.7164 37.0224 16.267 36.9437 16.739C37.809 16.5817 38.6744 16.3654 39.5397 16.09C40.405 15.8147 41.172 15.5197 41.8407 15.205C42.5487 14.851 43.0994 14.4774 43.4927 14.084C43.9254 13.6907 44.1417 13.258 44.1417 12.786C44.1417 12.196 43.9647 11.724 43.6107 11.37C43.2567 10.9767 42.7847 10.662 42.1947 10.426C41.644 10.19 41.054 10.0327 40.4247 9.95404C39.8347 9.83604 39.3037 9.77704 38.8317 9.77704H38.2417Z" fill="white"/>
<path d="M54.923 43.584C53.8217 43.7807 52.622 44.0167 51.324 44.292C50.026 44.5674 48.8854 44.823 47.902 45.059C48.374 43.3677 48.8264 41.4797 49.259 39.395C49.731 37.271 50.1834 35.0487 50.616 32.728C51.088 30.4074 51.5207 28.067 51.914 25.707C52.3467 23.3077 52.7597 21.0067 53.153 18.804C53.979 13.5727 54.805 8.16438 55.631 2.57904L75.396 1.57604L73.685 8.83304H64.422L62.593 19.335C63.8124 19.2957 64.9727 19.276 66.074 19.276C66.9787 19.276 67.903 19.276 68.847 19.276C69.791 19.276 70.5187 19.2564 71.03 19.217C70.912 20.3184 70.7547 21.4 70.558 22.462C70.4007 23.524 70.2434 24.586 70.086 25.648C69.5747 25.648 68.847 25.648 67.903 25.648C66.959 25.6087 65.9757 25.5694 64.953 25.53C63.9697 25.4907 62.8487 25.4514 61.59 25.412L58.876 42.817C57.5387 43.053 56.221 43.3087 54.923 43.584Z" fill="white"/>
<path d="M198.223 22.521C197.948 26.533 197.161 30.0337 195.863 33.023C194.565 35.973 192.992 38.451 191.143 40.457C189.334 42.463 187.367 43.9577 185.243 44.941C183.158 45.9244 181.172 46.416 179.284 46.416C177.829 46.416 176.432 46.1014 175.095 45.472C173.797 44.8427 172.656 43.8987 171.673 42.64C170.729 41.342 169.982 39.7294 169.431 37.802C168.88 35.8747 168.605 33.613 168.605 31.017C168.605 25.943 169.333 21.518 170.788 17.742C172.243 13.966 174.072 10.8194 176.275 8.30204C178.517 5.78471 180.897 3.91637 183.414 2.69704C185.971 1.47771 188.35 0.868042 190.553 0.868042C192.126 0.868042 193.483 1.14338 194.624 1.69404C195.804 2.24471 196.768 2.99204 197.515 3.93604C198.262 4.84071 198.793 5.92237 199.108 7.18104C199.462 8.40038 199.639 9.69838 199.639 11.075L191.556 12.609C191.202 11.0357 190.73 9.91471 190.14 9.24604C189.55 8.57738 188.881 8.24304 188.134 8.24304C187.151 8.24304 186.069 8.95104 184.889 10.367C183.709 11.7437 182.608 13.5334 181.585 15.736C180.562 17.9387 179.697 20.3577 178.989 22.993C178.281 25.6284 177.888 28.2244 177.809 30.781C177.809 33.2197 178.163 34.97 178.871 36.032C179.618 37.0547 180.562 37.566 181.703 37.566C182.49 37.566 183.296 37.3694 184.122 36.976C184.987 36.5827 185.754 36.032 186.423 35.324C187.092 34.5767 187.642 33.731 188.075 32.787C188.547 31.8037 188.803 30.7417 188.842 29.601L182.529 30.545L183.65 24.704C185.499 24.468 187.308 24.232 189.078 23.996C190.573 23.7994 192.146 23.5634 193.798 23.288C195.489 23.0127 196.964 22.757 198.223 22.521Z" fill="white"/>
<path d="M217.281 43.82C216.298 43.9774 215.216 44.1544 214.036 44.351C212.856 44.5477 211.794 44.7247 210.85 44.882C211.008 43.584 211.165 42.3057 211.322 41.047C211.44 39.9457 211.539 38.8444 211.617 37.743C211.735 36.6417 211.834 35.6977 211.912 34.911H206.779L204.419 43.407C203.554 43.525 202.531 43.6627 201.351 43.82C200.171 43.938 199.07 44.056 198.047 44.174C196.789 44.3314 195.55 44.4887 194.33 44.646C195.904 39.4147 197.457 34.262 198.991 29.188C199.621 27.064 200.27 24.8417 200.938 22.521C201.646 20.2004 202.335 17.8994 203.003 15.618C203.711 13.2974 204.38 11.075 205.009 8.95104C205.639 6.82704 206.189 4.88004 206.661 3.11004C209.336 2.91337 212.05 2.67737 214.803 2.40204C217.596 2.12671 220.31 1.75304 222.945 1.28104C222.827 2.53971 222.69 4.11304 222.532 6.00104C222.414 7.84971 222.296 9.87538 222.178 12.078C222.06 14.2807 221.942 16.5817 221.824 18.981C221.706 21.3804 221.588 23.7404 221.47 26.061C221.274 31.489 221.057 37.2514 220.821 43.348C219.641 43.5447 218.461 43.702 217.281 43.82ZM208.195 29.011C208.353 29.011 208.628 29.011 209.021 29.011C209.454 28.9717 209.887 28.952 210.319 28.952C210.791 28.9127 211.224 28.893 211.617 28.893C212.011 28.8537 212.286 28.8144 212.443 28.775C212.443 28.539 212.463 28.1457 212.502 27.595C212.581 27.005 212.64 26.356 212.679 25.648C212.758 24.9007 212.837 24.0944 212.915 23.229C212.994 22.3637 213.073 21.518 213.151 20.692C213.309 18.686 213.505 16.5227 213.741 14.202L214.095 9.06904L213.21 9.12804L211.853 14.202L208.195 29.011Z" fill="white"/>
<path d="M67.5974 45.191C68.7774 39.881 69.8984 34.689 70.9604 29.615C71.3931 27.491 71.8454 25.249 72.3174 22.889C72.7894 20.529 73.2417 18.2083 73.6744 15.927C74.1071 13.6457 74.5201 11.443 74.9134 9.319C75.3067 7.195 75.6411 5.248 75.9164 3.478C77.0571 3.124 78.1781 2.829 79.2794 2.593C80.3807 2.31767 81.5018 2.08167 82.6424 1.885C83.8224 1.68833 84.9238 1.59 85.9464 1.59C87.7164 1.59 89.1914 1.885 90.3714 2.475C91.5907 3.065 92.5741 3.87133 93.3214 4.894C94.0688 5.87733 94.5997 7.03767 94.9144 8.375C95.2291 9.71233 95.3864 11.148 95.3864 12.682C95.3864 14.8847 94.9734 17.0087 94.1474 19.054C93.3607 21.0993 92.2791 22.9283 90.9024 24.541C89.5651 26.1143 88.0114 27.373 86.2414 28.317C84.5108 29.261 82.7014 29.733 80.8134 29.733H80.1644C79.8497 31.0703 79.5547 32.5257 79.2794 34.099C79.0041 35.6723 78.7681 37.1277 78.5714 38.465C78.2961 40.0383 78.0404 41.6117 77.8044 43.185L67.5974 45.191ZM84.0584 8.729C83.6258 11.325 83.1931 13.7833 82.7604 16.104C82.3277 18.4247 81.8557 20.9027 81.3444 23.538C81.9737 23.3807 82.6227 23.0267 83.2914 22.476C83.9994 21.886 84.6484 21.1387 85.2384 20.234C85.8284 19.29 86.3004 18.2083 86.6544 16.989C87.0084 15.7697 87.1854 14.4913 87.1854 13.154C87.1854 11.6987 86.8511 10.5973 86.1824 9.85C85.5531 9.10267 84.8451 8.729 84.0584 8.729Z" fill="#2F0268"/>
<path d="M123.17 13.213C123.17 16.4383 122.816 19.4867 122.108 22.358C121.439 25.19 120.535 27.8057 119.394 30.205C118.253 32.565 116.916 34.689 115.382 36.577C113.887 38.4257 112.314 40.0187 110.662 41.356C109.01 42.654 107.338 43.657 105.647 44.365C103.956 45.0337 102.343 45.368 100.809 45.368C99.5109 45.368 98.3309 45.132 97.2689 44.66C96.2069 44.1487 95.2825 43.421 94.4959 42.477C93.7092 41.4937 93.0799 40.2547 92.6079 38.76C92.1752 37.226 91.9589 35.397 91.9589 33.273C91.9589 31.0703 92.2342 28.7497 92.7849 26.311C93.3355 23.8723 94.0829 21.4533 95.0269 19.054C95.9709 16.6547 97.1312 14.3733 98.5079 12.21C99.8845 10.0467 101.399 8.139 103.051 6.487C104.703 4.79567 106.473 3.45833 108.361 2.475C110.249 1.49167 112.216 1 114.261 1C116.031 1 117.486 1.37367 118.627 2.121C119.807 2.829 120.712 3.773 121.341 4.953C122.01 6.09367 122.482 7.39167 122.757 8.847C123.032 10.3023 123.17 11.7577 123.17 13.213ZM100.75 31.739C100.75 32.1717 100.829 32.624 100.986 33.096C101.143 33.568 101.36 33.981 101.635 34.335C101.91 34.689 102.245 35.0037 102.638 35.279C103.071 35.515 103.523 35.633 103.995 35.633C105.765 35.633 107.338 35.0233 108.715 33.804C110.092 32.5847 111.232 31.09 112.137 29.32C113.042 27.55 113.73 25.662 114.202 23.656C114.713 21.65 114.969 19.821 114.969 18.169C114.969 17.697 114.93 17.1857 114.851 16.635C114.812 16.0843 114.694 15.573 114.497 15.101C114.34 14.629 114.064 14.2357 113.671 13.921C113.317 13.567 112.825 13.39 112.196 13.39C110.937 13.39 109.777 13.7047 108.715 14.334C107.653 14.9633 106.689 15.809 105.824 16.871C104.998 17.8937 104.27 19.0737 103.641 20.411C103.012 21.709 102.461 23.0463 101.989 24.423C101.556 25.7603 101.242 27.078 101.045 28.376C100.848 29.674 100.75 30.795 100.75 31.739Z" fill="#2F0268"/>
<path d="M152.267 13.213C152.267 16.4383 151.913 19.4867 151.205 22.358C150.536 25.19 149.631 27.8057 148.491 30.205C147.35 32.565 146.013 34.689 144.479 36.577C142.984 38.4257 141.411 40.0187 139.759 41.356C138.107 42.654 136.435 43.657 134.744 44.365C133.052 45.0337 131.44 45.368 129.906 45.368C128.608 45.368 127.428 45.132 126.366 44.66C125.304 44.1487 124.379 43.421 123.593 42.477C122.806 41.4937 122.177 40.2547 121.705 38.76C121.272 37.226 121.056 35.397 121.056 33.273C121.056 31.0703 121.331 28.7497 121.882 26.311C122.432 23.8723 123.18 21.4533 124.124 19.054C125.068 16.6547 126.228 14.3733 127.605 12.21C128.981 10.0467 130.496 8.139 132.148 6.487C133.8 4.79567 135.57 3.45833 137.458 2.475C139.346 1.49167 141.312 1 143.358 1C145.128 1 146.583 1.37367 147.724 2.121C148.904 2.829 149.808 3.773 150.438 4.953C151.106 6.09367 151.578 7.39167 151.854 8.847C152.129 10.3023 152.267 11.7577 152.267 13.213ZM129.847 31.739C129.847 32.1717 129.925 32.624 130.083 33.096C130.24 33.568 130.456 33.981 130.732 34.335C131.007 34.689 131.341 35.0037 131.735 35.279C132.167 35.515 132.62 35.633 133.092 35.633C134.862 35.633 136.435 35.0233 137.812 33.804C139.188 32.5847 140.329 31.09 141.234 29.32C142.138 27.55 142.827 25.662 143.299 23.656C143.81 21.65 144.066 19.821 144.066 18.169C144.066 17.697 144.026 17.1857 143.948 16.635C143.908 16.0843 143.79 15.573 143.594 15.101C143.436 14.629 143.161 14.2357 142.768 13.921C142.414 13.567 141.922 13.39 141.293 13.39C140.034 13.39 138.874 13.7047 137.812 14.334C136.75 14.9633 135.786 15.809 134.921 16.871C134.095 17.8937 133.367 19.0737 132.738 20.411C132.108 21.709 131.558 23.0463 131.086 24.423C130.653 25.7603 130.338 27.078 130.142 28.376C129.945 29.674 129.847 30.795 129.847 31.739Z" fill="#2F0268"/>
<path d="M164.607 43.244C163.388 43.244 162.09 43.2833 160.713 43.362C159.376 43.4407 158.019 43.5587 156.642 43.716C155.266 43.8733 153.909 44.0897 152.571 44.365C151.273 44.601 150.093 44.896 149.031 45.25C149.267 43.48 149.543 41.5133 149.857 39.35C150.172 37.1867 150.526 34.9447 150.919 32.624C151.352 30.3033 151.765 27.963 152.158 25.603C152.591 23.243 153.024 20.9813 153.456 18.818C154.44 13.6653 155.482 8.41433 156.583 3.065L166.908 1.708C165.846 6.27067 164.824 10.7153 163.84 15.042C163.408 16.8907 162.975 18.818 162.542 20.824C162.11 22.7907 161.697 24.718 161.303 26.606C160.91 28.494 160.556 30.323 160.241 32.093C159.927 33.863 159.671 35.4363 159.474 36.813C160.458 36.7343 161.5 36.695 162.601 36.695C163.742 36.6557 164.745 36.636 165.61 36.636C165.65 37.3833 165.709 38.1307 165.787 38.878C165.866 39.586 165.945 40.235 166.023 40.825C166.141 41.415 166.22 41.946 166.259 42.418C166.338 42.8507 166.397 43.1457 166.436 43.303C166.122 43.303 165.807 43.303 165.492 43.303C165.217 43.2637 164.922 43.244 164.607 43.244Z" fill="#2F0268"/>
</svg>
